<svg width="405" height="107" viewBox="0 0 405 107" fill="none" xmlns="http://www.w3.org/2000/svg">
<path d="M41.528 12.704C38.936 12.8 36.968 13.136 35.624 13.712C34.28 14.192 33.224 15.296 32.456 17.024C31.688 18.752 31.304 21.488 31.304 25.232V80.384C31.304 85.568 31.112 89.792 30.728 93.056H50.024C55.784 92.96 60.248 90.944 63.416 87.008C66.584 82.976 68.168 77.12 68.168 69.44H77.816L76.952 104H0.200012V94.496C2.79201 94.4 4.76001 94.112 6.10401 93.632C7.44801 93.056 8.50401 91.904 9.27201 90.176C10.04 88.448 10.424 85.712 10.424 81.968V26.816C10.424 21.44 10.616 17.12 11 13.856L0.200012 14.288V3.2H41.528V12.704Z" fill="black"/>
<path d="M135.49 0.895996C146.53 0.895996 155.794 3.53599 163.282 8.81599C170.866 14 176.482 20.624 180.13 28.688C183.778 36.752 185.602 45.056 185.602 53.6C185.602 61.952 183.682 70.208 179.842 78.368C176.002 86.432 170.242 93.104 162.562 98.384C154.978 103.664 145.81 106.304 135.058 106.304C123.538 106.304 114.034 103.76 106.546 98.672C99.0583 93.584 93.5863 87.056 90.1303 79.088C86.6743 71.12 84.9463 62.624 84.9463 53.6C84.9463 45.056 86.8663 36.752 90.7063 28.688C94.5463 20.624 100.258 14 107.842 8.81599C115.522 3.53599 124.738 0.895996 135.49 0.895996ZM134.338 11.408C128.002 11.408 122.818 13.424 118.786 17.456C114.754 21.488 111.874 26.576 110.146 32.72C108.418 38.864 107.554 45.248 107.554 51.872C107.554 58.592 108.514 65.312 110.434 72.032C112.354 78.752 115.474 84.416 119.794 89.024C124.21 93.536 129.778 95.792 136.498 95.792C142.738 95.792 147.826 93.824 151.762 89.888C155.698 85.952 158.53 80.96 160.258 74.912C161.986 68.864 162.85 62.576 162.85 56.048C162.85 42.416 160.45 31.568 155.65 23.504C150.85 15.44 143.746 11.408 134.338 11.408Z" fill="black"/>
<path d="M245.73 0.895996C249.858 0.895996 254.514 1.52 259.698 2.76801C264.978 4.016 269.442 5.744 273.09 7.952H273.234L272.658 1.90399H283.746V35.456H274.386C273.138 27.68 270.114 21.728 265.314 17.6C260.514 13.472 254.61 11.36 247.602 11.264C241.266 11.264 235.89 13.184 231.474 17.024C227.058 20.768 223.746 25.76 221.538 32C219.33 38.24 218.226 44.96 218.226 52.16C218.226 64.928 220.866 75.248 226.146 83.12C231.426 90.992 238.818 94.928 248.322 94.928C251.394 94.928 254.898 94.592 258.834 93.92C262.866 93.248 266.13 92.288 268.626 91.04V77.648C268.626 72.272 268.818 67.952 269.202 64.688C266.706 64.88 264.354 64.976 262.146 64.976L258.402 65.12V54.032H296.706V63.536C294.306 63.632 292.434 63.968 291.09 64.544C289.746 65.12 288.738 66.32 288.066 68.144C287.394 69.872 287.058 72.512 287.058 76.064V99.104H283.602C281.394 99.104 279.186 99.344 276.978 99.824C274.866 100.304 272.13 101.072 268.77 102.128C263.778 103.568 259.602 104.624 256.242 105.296C252.882 105.968 249.042 106.304 244.722 106.304C234.546 106.304 225.762 104.048 218.37 99.536C211.074 95.024 205.458 88.928 201.522 81.248C197.682 73.472 195.762 64.736 195.762 55.04C195.762 45.92 197.634 37.232 201.378 28.976C205.218 20.624 210.882 13.856 218.37 8.672C225.954 3.488 235.074 0.895996 245.73 0.895996Z" fill="black"/>
<path d="M354.725 0.895996C365.765 0.895996 375.029 3.53599 382.517 8.81599C390.101 14 395.717 20.624 399.365 28.688C403.013 36.752 404.837 45.056 404.837 53.6C404.837 61.952 402.917 70.208 399.077 78.368C395.237 86.432 389.477 93.104 381.797 98.384C374.213 103.664 365.045 106.304 354.293 106.304C342.773 106.304 333.269 103.76 325.781 98.672C318.293 93.584 312.821 87.056 309.365 79.088C305.909 71.12 304.181 62.624 304.181 53.6C304.181 45.056 306.101 36.752 309.941 28.688C313.781 20.624 319.493 14 327.077 8.81599C334.757 3.53599 343.973 0.895996 354.725 0.895996ZM353.573 11.408C347.237 11.408 342.053 13.424 338.021 17.456C333.989 21.488 331.109 26.576 329.381 32.72C327.653 38.864 326.789 45.248 326.789 51.872C326.789 58.592 327.749 65.312 329.669 72.032C331.589 78.752 334.709 84.416 339.029 89.024C343.445 93.536 349.013 95.792 355.733 95.792C361.973 95.792 367.061 93.824 370.997 89.888C374.933 85.952 377.765 80.96 379.493 74.912C381.221 68.864 382.085 62.576 382.085 56.048C382.085 42.416 379.685 31.568 374.885 23.504C370.085 15.44 362.981 11.408 353.573 11.408Z" fill="black"/>
</svg>
